PathFileType	4	(X/Y/Z)	35_2_97_p1_0-621.trc
DataRate	CameraRate	NumFrames	NumMarkers	Units	OrigDataRate	OrigDataStartFrame	OrigNumFrames
41.0	41.0	6	27	m	41.0	155	622
Frame#	Time	RHip			RKnee			RAnkle			RBigToe			RSmallToe			RHeel			LHip			LKnee			LAnkle			LBigToe			LSmallToe			LHeel			Neck			Head			Nose			RShoulder			RElbow			RWrist			RThumb			RIndex			RPinky			LShoulder			LElbow			LWrist			LThumb			LIndex			LPinky			
		X1	Y1	Z1	X2	Y2	Z2	X3	Y3	Z3	X4	Y4	Z4	X5	Y5	Z5	X6	Y6	Z6	X7	Y7	Z7	X8	Y8	Z8	X9	Y9	Z9	X10	Y10	Z10	X11	Y11	Z11	X12	Y12	Z12	X13	Y13	Z13	X14	Y14	Z14	X15	Y15	Z15	X16	Y16	Z16	X17	Y17	Z17	X18	Y18	Z18	X19	Y19	Z19	X20	Y20	Z20	X21	Y21	Z21	X22	Y22	Z22	X23	Y23	Z23	X24	Y24	Z24	X25	Y25	Z25	X26	Y26	Z26	X27	Y27	Z27	
155	3.7804878048780486	0.3824688090104992	0.5774552351322129	0.45804751324906395	0.38319125488350564	0.872951253076583	0.81365753595399	0.39207424521010203	1.1545375055744163	1.1878245572245782	0.3363575324335581	0.9321703297215803	1.2822842184073036	0.40906666640583095	0.9569144949889868	1.2815785998888967	0.3637571111976883	1.2870025586252474	1.2152104697499588	0.16490128227889692	0.683837523640478	0.4349508161867612	0.17716898622057148	0.9362392166785808	0.8135625172864924	0.18959767008416148	1.144325762333753	1.1961847373149133	0.18268431000619648	0.9305533296015744	1.2720806073323614	0.1328573964254053	1.0078612113019205	1.2705511377909315	0.20111771076869697	1.2171485578092982	1.2280791703318863	0.26835852744741917	0.41212537151011236	-0.054674790619332454	0.22378197675045533	0.2794780866073491	-0.27352980812538413	0.19254017041208774	0.2993309484673481	-0.14219124150205492	0.4273182547070274	0.398944824993785	0.04043342312307883	0.5057965919673274	0.5123796829591867	0.2956013377783915	0.48787700435263115	0.5484061932446274	0.5393561751426786	0.4286094420099473	0.6686677484127888	0.6245815729302462	0.44355085731137833	0.6876580874331543	0.659467527826944	0.4937654870165227	0.6024596754494387	0.6498723383450363	0.12590311339975077	0.47788688402371193	0.014460685663753477	0.07438864316654946	0.6116860777623004	0.24563857288764226	0.04251111297924654	0.730108775935754	0.4838948724367109	0.08250209461267258	0.7147136679752413	0.603040346696849	0.04973122949395336	0.7816580616199077	0.6200561989047959	0.03589588463062941	0.7914844044291273	0.6037626597761558
156	3.8048780487804876	0.3864495927543294	0.5899696619415966	0.4557561026565883	0.38846281511604364	0.8906248975371466	0.8166350254726777	0.39218485152979415	1.1543723126458805	1.1877931028586322	0.3407515674682953	0.9464661843625017	1.28753919407531	0.40894149122425505	0.9569182857411066	1.2820454635320568	0.3623540137173917	1.282073356581088	1.206558227270587	0.16514936141293848	0.6864099603408851	0.4350454305770476	0.17691013181754972	0.936368503169727	0.8136945125304605	0.19057906336775882	1.1414122074430821	1.1920010147153344	0.1817170272852159	0.9335668747164346	1.2757680716196373	0.13270907916683747	1.00903133272419	1.2707778427952607	0.2014237325826666	1.2141622740075895	1.2270809861163396	0.26827410406475616	0.4122860137983631	-0.05470372349122719	0.22330102583629102	0.2701338083336997	-0.25785710207361257	0.18942029456206316	0.28877576360986773	-0.13739674321501144	0.42721268162614306	0.3989180142258975	0.040387905584055375	0.5022281271844751	0.5138219022154569	0.29880001338993256	0.4889889760895973	0.5493751494401768	0.5388895417213619	0.42561594998921576	0.659037175753583	0.6296044192324095	0.4485824021859131	0.6907993578877356	0.6639988304323823	0.4947131665674648	0.6054067914310803	0.65790719922601	0.1261290876145771	0.4766002728184902	0.01092196219370205	0.07450074767534787	0.6123251061734234	0.24558641191329442	0.04269130708142772	0.7251435468285596	0.47681475257589867	0.08969755699398967	0.7297250031241739	0.6006644527287984	0.05006003545836236	0.781964048487245	0.6199781718051058	0.03603583614517834	0.791271403624336	0.6034908763163837
157	3.8292682926829267	0.38683356066755886	0.5882700761593076	0.4522854013797588	0.38384799516717766	0.8760410328232926	0.8174136857508761	0.3886940243870887	1.1422754238096104	1.1913220549491508	0.34076038655531476	0.9463437927930577	1.283314357496535	0.41000527390315833	0.9541137331074506	1.2780237124840992	0.36357129544737804	1.286437730810991	1.2113694037387586	0.16874768695955292	0.6952328971664715	0.4253002101805153	0.18162623812032475	0.919992905477038	0.8143062955235117	0.1905729738636462	1.1416281330184703	1.191965891553831	0.1809153131215707	0.9296066021021306	1.2720591908848642	0.13257637404367126	1.0095266768430962	1.2709680226648066	0.20119607546562354	1.216551324334574	1.2278450808124817	0.2680123737645106	0.4109633813975675	-0.05794568505832467	0.22684573855891232	0.2812051653460286	-0.26350856058620087	0.1923567723590952	0.2979136702113063	-0.145399307425956	0.42398896924856116	0.41162070561478875	0.03606328802460718	0.5011047630101878	0.5098756741646503	0.29246356586710526	0.4877885366497179	0.5480468610220395	0.5392327694460836	0.4248321251143026	0.6560509174058777	0.6264891190217008	0.44851507122707346	0.6908273993433635	0.6637106763256544	0.49470902031346087	0.6057038673810382	0.6577645775208365	0.1260869001491632	0.4765084128264022	0.0109747208477011	0.07463924323226011	0.6125322038076245	0.2455359706262514	0.04324116754376081	0.7287012771922469	0.4801778677417542	0.0905148409937715	0.7276746789129895	0.5933310104629081	0.050813022259467544	0.7805060155663678	0.6130375191235343	0.03653589246311445	0.7939430592641676	0.6062640844085783
158	3.8536585365853657	0.38685273337543175	0.5883969780364533	0.4522664466303554	0.3839300668045359	0.8764600806470503	0.8175962509651773	0.3921886297560138	1.1545375502304078	1.1877598679989612	0.3408325333414032	0.946424546919773	1.2834045483756278	0.4092918669624207	0.9567347862699712	1.2815215912797977	0.3623616286930972	1.282083808570975	1.2064192883782217	0.16818021722914916	0.6967905353599374	0.4285758644061551	0.17713719408780262	0.9360669240620639	0.8135913419457614	0.1907721672411411	1.1414296874860816	1.191819017455117	0.18385565187138317	0.9445929966630126	1.2733475033134898	0.12788575431677005	1.0271499331586935	1.272644437591454	0.2016261342679495	1.2141989216290863	1.2268938588444953	0.26802896887693956	0.41104400781186057	-0.05790426919234029	0.22679241596370112	0.27930546118148614	-0.2663304497471017	0.19231974312069192	0.2979649009918677	-0.14539802259380125	0.4201091622345365	0.4107432040341581	0.036486445093562664	0.5011825952699408	0.5099043434029841	0.29239478160245447	0.48811230014437273	0.5461801657203182	0.5357285502682839	0.4255587696511314	0.6586194990266462	0.6296891613130305	0.452408246736786	0.6914659255604446	0.6670125892415628	0.4947109291032938	0.6054191738954091	0.657888848856589	0.12607107838430126	0.47657998416391645	0.010965061935175137	0.07470157710134671	0.6123986105215163	0.24560402702476264	0.04325165463956295	0.7287774092941463	0.4801863254530263	0.09459717210842981	0.7288847709977984	0.5929717611645186	0.0550150854392278	0.782788999172112	0.6164120882225311	0.03662661660856374	0.79408419219181	0.6064260185528109
159	3.8780487804878048	0.3868444790911275	0.5884275773686407	0.4522364412914162	0.38399686084308077	0.8774658712812969	0.8181875150392782	0.39216842363989385	1.154623094851851	1.1877583542032695	0.34079399262924404	0.9467162662937575	1.2834667734236274	0.4092067420090742	0.9570602114218929	1.2816452809739394	0.36232136673144205	1.2822486043378636	1.20645841505816	0.16864987092336775	0.6954289069887382	0.42530258644470276	0.17704714488851214	0.9363574108014013	0.8137443680067666	0.18974317596017604	1.137223216882178	1.1874617173330875	0.18470643391624764	0.9482535827385431	1.2771515221127632	0.1279704090205246	1.026825269953926	1.2726108506329725	0.20142177739955433	1.2155565041075709	1.2272878581502402	0.26437117036930075	0.42655955511138094	-0.0562245265720476	0.23112422520191958	0.28063396193029266	-0.2672448563505402	0.19576001670839302	0.28439452706396395	-0.1435469865319846	0.4200381188520204	0.41088155687945144	0.036441635740925474	0.5015554415998595	0.5082281291801329	0.28894684022772527	0.48889553447106443	0.5489638489280597	0.538844863175219	0.42448084208054343	0.6357763652315799	0.6398565432109078	0.4473426128804228	0.6630094875090753	0.6703520908620586	0.49802476441380644	0.593637850297309	0.6633076151542453	0.126042905125395	0.476438986631135	0.010946734500967881	0.07449689745695179	0.6113023869011022	0.24207747308740804	0.04381370707213532	0.7271526902064356	0.47682564338962047	0.09489521549664373	0.729190167939517	0.5967193800225657	0.05513138863839123	0.7824280528105801	0.616520977027322	0.036586116651947824	0.794005255871511	0.6065250515503381
160	3.902439024390244	0.382899039804815	0.576288948408505	0.4546333030361934	0.38420416134196916	0.8779788073724041	0.8184257475366289	0.392969680033463	1.1584068974625683	1.187923184827582	0.3407169818768339	0.9464669000721284	1.2834904773832512	0.4092482414910759	0.9567980301917542	1.2815552983035488	0.3636043506235804	1.2867789706926338	1.2115351622596304	0.16848162878647518	0.6980819093964963	0.4324076197804141	0.17711553181889694	0.9365329455414286	0.8138136849804308	0.1906929560125386	1.142069795837582	1.1919158837268589	0.18464257140342827	0.9482795682943503	1.2771851826278042	0.127910585687711	1.0271517856957502	1.2726855916010988	0.2016398997856568	1.2165326842220685	1.2272173442117145	0.26443277580945057	0.42669612297069526	-0.056174029824184124	0.231181414600675	0.2806349490933351	-0.26691161572271516	0.19217495328611542	0.29562819066676665	-0.14821994244839515	0.42003746958060123	0.41084922099509263	0.03655992334586507	0.5024273113217105	0.5133400501985781	0.2989692106169022	0.48881194090936364	0.5489679242852763	0.5388718176713897	0.41883782401345127	0.6175012164108775	0.635023590376199	0.4421465091364267	0.6582196503483284	0.6629665636975354	0.4954690973164971	0.6070252859412169	0.6654215963052728	0.12292565416211156	0.4649033292099686	0.014963909569603705	0.0745891459497879	0.6118886787845751	0.24201971226624142	0.043200996194462556	0.7288750175307501	0.4801403525657442	0.09053799486488932	0.7272036634027271	0.5935591817244895	0.050802952278746774	0.7800198016349283	0.61310603571693	0.03650389334687975	0.7943487668969186	0.606375292207519
